<svg width="25" height="24" viewBox="0 0 25 24" fill="none" xmlns="http://www.w3.org/2000/svg">
<path d="M20.984 3.51343C16.297 -1.17214 8.69901 -1.17101 4.01344 3.51601C-0.672138 8.20304 -0.671013 15.801 4.01602 20.4866C8.70304 25.1721 16.301 25.171 20.9866 20.484C23.2369 18.233 24.5007 15.1803 24.5 11.9974C24.4993 8.81508 23.2346 5.76334 20.984 3.51343ZM18.6736 16.7159C18.6731 16.7164 18.6726 16.7169 18.672 16.7174V16.7135L18.064 17.3174C17.2776 18.1137 16.1324 18.4413 15.044 18.1814C13.9473 17.8879 12.9048 17.4207 11.956 16.7975C11.0744 16.2341 10.2575 15.5755 9.51998 14.8334C8.84137 14.1598 8.23172 13.4201 7.69997 12.6255C7.11834 11.7704 6.65798 10.8389 6.33197 9.85744C5.95823 8.70451 6.26794 7.4394 7.13198 6.58946L7.84397 5.87748C8.04192 5.67863 8.36357 5.67793 8.56237 5.87588C8.56289 5.8764 8.56345 5.87692 8.56397 5.87748L10.8119 8.12546C11.0108 8.32341 11.0115 8.64507 10.8135 8.84386C10.813 8.84438 10.8125 8.8449 10.8119 8.84546L9.49195 10.1655C9.1132 10.5401 9.06557 11.1354 9.37996 11.5655C9.85739 12.2207 10.3857 12.8372 10.96 13.4095C11.6002 14.0525 12.2963 14.6375 13.04 15.1575C13.4697 15.4572 14.0522 15.4067 14.4239 15.0375L15.6999 13.7415C15.8979 13.5427 16.2195 13.542 16.4183 13.7399C16.4188 13.7404 16.4194 13.7409 16.4199 13.7415L18.6719 15.9975C18.8708 16.1954 18.8715 16.517 18.6736 16.7159Z" fill="white"/>
</svg>
