<svg width="30" height="30" viewBox="0 0 30 30" fill="none" xmlns="http://www.w3.org/2000/svg">
<path d="M0.932988 20.2174C0.330059 18.5923 0 16.8348 0 15C0 13.1652 0.330059 11.4076 0.932988 9.78265L15 8.47829L29.067 9.78265C29.6699 11.4076 30 13.1652 30 15C30 16.8348 29.6699 18.5923 29.067 20.2174L15 21.5217L0.932988 20.2174Z" fill="#F0F0F0"/>
<path d="M15 30C8.55059 30 3.05238 25.9294 0.933048 20.2174H29.0671C26.9476 25.9294 21.4495 30 15 30Z" fill="#D80027"/>
<path d="M15 1.71661e-05C21.4495 1.71661e-05 26.9476 4.07064 29.0671 9.78265H0.933048C3.05238 4.07064 8.55059 1.71661e-05 15 1.71661e-05Z" fill="#6DA544"/>
</svg>
