<svg width="115" height="118" viewBox="0 0 115 118" fill="none" xmlns="http://www.w3.org/2000/svg">
<path d="M30.679 25.1256C37.6344 25.1256 43.2418 19.4642 43.2418 12.5628C43.2418 5.60742 37.5805 0 30.679 0C23.7236 0 18.1162 5.66134 18.1162 12.5628C18.1162 19.5182 23.7776 25.1256 30.679 25.1256ZM30.679 2.69588C36.1247 2.69588 40.5459 7.11711 40.5459 12.5628C40.5459 18.0085 36.1247 22.4297 30.679 22.4297C25.2333 22.4297 20.8121 18.0085 20.8121 12.5628C20.8121 7.11711 25.2333 2.69588 30.679 2.69588Z" fill="url(#paint0_linear_126_128)"/>
<path d="M51.3834 42.9184C51.3834 42.9184 49.6042 38.3354 49.0111 36.8257C48.9572 36.7179 44.7516 26.9049 31.9192 26.9049H29.4929C16.6605 26.9049 12.455 36.7718 12.401 36.8257C11.808 38.3354 10.0287 42.9184 10.0287 42.9184L0.485255 67.397C0.161749 68.2058 0 69.1224 0 69.9851C0 72.9505 1.8332 75.6464 4.58299 76.7248C5.44568 77.0483 6.30835 77.21 7.17103 77.21C7.92588 77.21 8.62681 77.1022 9.32773 76.8865L2.85763 93.4392C2.69587 93.8705 2.74979 94.3019 3.01938 94.6793C3.28897 95.0567 3.66639 95.2724 4.15165 95.2724H18.8172V103.037C18.8172 103.791 19.4103 104.384 20.1652 104.384C20.92 104.384 21.5131 103.791 21.5131 103.037V93.9245C21.5131 93.1696 20.92 92.5765 20.1652 92.5765H6.1466L19.0329 59.579C19.3025 58.878 18.979 58.1232 18.2781 57.8536C17.5771 57.584 16.8223 57.9075 16.5527 58.6084L15.9596 60.0642L11.4305 71.6026C10.5139 73.921 7.92588 75.0533 5.60743 74.1906C3.88206 73.5436 2.74979 71.8182 2.74979 69.9851C2.74979 69.4459 2.85763 68.9067 3.0733 68.3675L12.6167 43.8889C12.6167 43.8889 14.396 39.3059 14.9891 37.7963C15.043 37.6884 18.7094 29.5469 29.5468 29.5469H31.9731C42.8645 29.5469 46.5309 37.6884 46.5309 37.7963C47.124 39.3059 48.9032 43.8889 48.9032 43.8889L58.4467 68.3675C58.6623 68.9067 58.7702 69.4459 58.7702 69.9851C58.7702 71.8182 57.6379 73.5436 55.9125 74.1906C53.5941 75.1072 51.006 73.921 50.0894 71.6026L46.0995 61.3582L45.0212 58.5545C44.7516 57.8536 43.9967 57.5301 43.2958 57.7997C42.5949 58.0693 42.2714 58.878 42.541 59.525L55.4273 92.5226H41.4087C40.6539 92.5226 40.0608 93.1157 40.0608 93.8706V116.354C40.0608 117.109 40.6539 117.702 41.4087 117.702C42.1635 117.702 42.7566 117.109 42.7566 116.354V95.2185H57.4222C57.8536 95.2185 58.2849 95.0028 58.5545 94.6254C58.8241 94.248 58.878 93.8166 58.7162 93.3853L52.2461 76.8326C53.7558 77.3178 55.4273 77.3178 56.9909 76.6708C59.7407 75.5925 61.5739 72.8966 61.5739 69.9311C61.5739 69.0684 61.4121 68.1519 61.0886 67.3431L51.3834 42.9184Z" fill="url(#paint1_linear_126_128)"/>
<path d="M91.552 25.1256C98.5074 25.1256 104.115 19.4642 104.115 12.5628C104.115 5.60742 98.4535 0 91.552 0C84.5967 0 78.9893 5.66134 78.9893 12.5628C78.9893 19.5182 84.6506 25.1256 91.552 25.1256ZM91.552 2.69588C96.9977 2.69588 101.419 7.11711 101.419 12.5628C101.419 18.0085 96.9977 22.4297 91.552 22.4297C86.1064 22.4297 81.6851 18.0085 81.6851 12.5628C81.6851 7.11711 86.1603 2.69588 91.552 2.69588Z" fill="url(#paint2_linear_126_128)"/>
<path d="M107.458 31.7035C103.414 28.5224 97.9142 26.851 91.5519 26.851C85.1896 26.851 79.69 28.5224 75.6462 31.7035C71.225 35.1543 68.9065 40.1686 68.9065 46.1534V77.21C68.9065 79.3128 69.7153 81.2538 71.171 82.7096C72.3033 83.8418 73.7591 84.5967 75.3227 84.8663V103.522C75.3227 104.277 75.9158 104.87 76.6706 104.87C77.4255 104.87 78.0186 104.277 78.0186 103.522V50.6286C78.0186 49.8738 77.4255 49.2807 76.6706 49.2807C75.9158 49.2807 75.3227 49.8738 75.3227 50.6286V82.1165C74.46 81.9008 73.7052 81.4695 73.1121 80.8225C72.1416 79.8519 71.6024 78.6118 71.6024 77.2639V46.2074C71.6024 33.9681 82.332 29.6547 91.5519 29.6547C97.2132 29.6547 102.281 31.1644 105.786 33.9142C109.506 36.8257 111.501 41.0852 111.501 46.2074V77.2639C111.501 79.6902 109.83 81.6851 107.565 82.1704V50.6286C107.565 49.8738 106.972 49.2807 106.217 49.2807C105.463 49.2807 104.87 49.8738 104.87 50.6286V116.624C104.87 117.379 105.463 117.972 106.217 117.972C106.972 117.972 107.565 117.379 107.565 116.624V84.8663C111.286 84.3271 114.197 81.092 114.197 77.21V46.1534C114.251 40.1686 111.879 35.1543 107.458 31.7035Z" fill="url(#paint3_linear_126_128)"/>
<path d="M92.6843 116.893C92.6843 117.486 92.199 117.972 91.6059 117.972C91.0128 117.972 90.5276 117.486 90.5276 116.893V87.8856C90.5276 87.2925 91.0128 86.8073 91.6059 86.8073C92.199 86.8073 92.6843 87.2925 92.6843 87.8856V116.893Z" fill="url(#paint4_linear_126_128)"/>
<defs>
<linearGradient id="paint0_linear_126_128" x1="18.1162" y1="-3.59744" x2="22.2483" y2="26.2911" gradientUnits="userSpaceOnUse">
<stop stop-color="#FCDBFF"/>
<stop offset="1" stop-color="#E8F1FF"/>
</linearGradient>
<linearGradient id="paint1_linear_126_128" x1="1.87205e-06" y1="13.9047" x2="21.5448" y2="119.586" gradientUnits="userSpaceOnUse">
<stop stop-color="#FCDBFF"/>
<stop offset="1" stop-color="#E8F1FF"/>
</linearGradient>
<linearGradient id="paint2_linear_126_128" x1="78.9893" y1="-3.59744" x2="83.1214" y2="26.2911" gradientUnits="userSpaceOnUse">
<stop stop-color="#FCDBFF"/>
<stop offset="1" stop-color="#E8F1FF"/>
</linearGradient>
<linearGradient id="paint3_linear_126_128" x1="68.9065" y1="13.8044" x2="97.4254" y2="116.338" gradientUnits="userSpaceOnUse">
<stop stop-color="#FCDBFF"/>
<stop offset="1" stop-color="#E8F1FF"/>
</linearGradient>
<linearGradient id="paint4_linear_126_128" x1="90.5276" y1="82.3452" x2="105.65" y2="89.9151" gradientUnits="userSpaceOnUse">
<stop stop-color="#FCDBFF"/>
<stop offset="1" stop-color="#E8F1FF"/>
</linearGradient>
</defs>
</svg>
